<?xml version="1.0" encoding="utf-8"?>
<!-- Generator: Adobe Illustrator 23.1.0, SVG Export Plug-In . SVG Version: 6.00 Build 0)  -->
<svg width="196" height="65" version="1.1" id="Слой_1" xmlns="http://www.w3.org/2000/svg" xmlns:xlink="http://www.w3.org/1999/xlink" x="0px" y="0px"
	 viewBox="0 0 180 60" style="enable-background:new 0 0 180 60;" xml:space="preserve">
<style type="text/css">
	.st0{fill:#0A66EF;}
</style>
<g>
	<g>
		<path class="st0" d="M39.9,26.7h4.5c1.2,0,2.2-1,2.2-2.2v-4.5c0-1.2-1-2.2-2.2-2.2h0h-4.5c-1.2,0-2.2,1-2.2,2.2v0v4.5
			C37.7,25.7,38.7,26.7,39.9,26.7z M39.9,19.9h4.5v4.5h-4.5V19.9z"/>
		<path class="st0" d="M44.4,33.4h-4.5c-1.2,0-2.2,1-2.2,2.2v0v4.5c0,1.2,1,2.2,2.2,2.2h4.5c1.2,0,2.2-1,2.2-2.2v-4.5
			C46.6,34.4,45.6,33.4,44.4,33.4C44.4,33.4,44.4,33.4,44.4,33.4z M44.4,40.1h-4.5v-4.5h4.5L44.4,40.1L44.4,40.1z"/>
		<circle class="st0" cx="55" cy="19.4" r="1.7"/>
		<path class="st0" d="M50,26.7c0.6,0,1.1-0.5,1.1-1.1v-1.1c0-0.6,0.5-1.1,1.1-1.1h0c0.6,0,1.1-0.5,1.1-1.1c0-0.6-0.5-1.1-1.1-1.1
			c-0.6,0-1.1-0.5-1.1-1.1v-1.1c0-0.6-0.5-1.1-1.1-1.1c-0.6,0-1.1,0.5-1.1,1.1c0,0,0,0,0,0v6.7C48.9,26.2,49.4,26.7,50,26.7L50,26.7
			z"/>
		<path class="st0" d="M50,28.9c-0.6,0-1.1-0.5-1.1-1.1c0-0.6-0.5-1.1-1.1-1.1c-0.6,0-1.1,0.5-1.1,1.1c0,0.6-0.5,1.1-1.1,1.1h-6.7
			c-0.6,0-1.1,0.5-1.1,1.1c0,0.6,0.5,1.1,1.1,1.1h6.7c0.6,0,1.1,0.5,1.1,1.1v0c0,0.6,0.5,1.1,1.1,1.1s1.1,0.5,1.1,1.1v0v2.2
			c0,0.6,0.5,1.1,1.1,1.1c0.6,0,1.1-0.5,1.1-1.1V30C51.1,29.4,50.6,28.9,50,28.9C50,28.9,50,28.9,50,28.9L50,28.9z"/>
		<circle class="st0" cx="50" cy="41.2" r="1.1"/>
		<path class="st0" d="M55,23.3c-0.9,0-1.7,0.8-1.7,1.7v0.6c0,0.6-0.5,1.1-1.1,1.1c-0.6,0-1.1,0.5-1.1,1.1c0,0.6,0.5,1.1,1.1,1.1h0
			c0.6,0,1.1,0.5,1.1,1.1v0c0,0.6,0.5,1.1,1.1,1.1H55c0.9,0,1.7-0.8,1.7-1.7v-2v-0.2V25C56.7,24,55.9,23.3,55,23.3z"/>
		<path class="st0" d="M55.6,40.1L55.6,40.1v-4.5v0c0.6,0,1.1-0.5,1.1-1.1c0-0.6-0.5-1.1-1.1-1.1c-0.1,0-0.2,0-0.2,0
			c-1.1,0.1-2,1.1-2,2.2v0v4.5c0,1.2,0.9,2.1,2,2.2c0.1,0,0.1,0,0.2,0c0.6,0,1.1-0.5,1.1-1.1C56.7,40.6,56.2,40.1,55.6,40.1z"/>
	</g>
	<path class="st0" d="M39.2,46.9h-3.6c-0.6,0-1.1-0.1-1.5-0.3c-0.4-0.2-0.8-0.5-1.1-1l-6-8.5c0.8-0.4,1.6-1,2.2-1.7
		c0.7-0.7,1.2-1.5,1.6-2.4c0.4-0.9,0.6-1.9,0.6-3c0-1.5-0.4-2.9-1.1-4.2c-0.7-1.2-1.7-2.2-2.9-2.9c-1.2-0.7-2.6-1.1-4.1-1.1
		c-1.5,0-2.9,0.4-4.1,1.1c-1.2,0.7-2.2,1.7-2.9,2.9c-0.7,1.2-1.1,2.6-1.1,4.2c0,1.5,0.4,2.9,1.1,4.1c0.7,1.2,1.7,2.2,2.9,2.9
		c1.2,0.7,2.6,1.1,4,1.1c0.8,0,1.5-0.2,2.2-0.5l2.7,4.1c-0.7,0.3-1.4,0.5-2.3,0.7c-0.8,0.2-1.7,0.2-2.5,0.2c-2.4,0-4.5-0.6-6.5-1.7
		c-1.9-1.1-3.5-2.6-4.6-4.5c-1.1-1.9-1.7-4.1-1.7-6.4s0.6-4.5,1.7-6.4s2.6-3.4,4.6-4.6c1.9-1.1,4.1-1.7,6.5-1.7
		c2.4,0,4.5,0.6,6.5,1.7c1.9,1.1,3.5,2.6,4.6,4.6c1.1,1.9,1.7,4.1,1.7,6.4c0,1.2-0.2,2.4-0.5,3.6c-0.4,1.1-0.9,2.2-1.5,3.1
		c-0.5,0.9-1.2,1.6-2.3,2c0.6,0,1.1,0.2,1.6,0.4c0.4,0.2,0.8,0.5,1,0.8L39.2,46.9z"/>
	<path class="st0" d="M58.6,42.3V17.7h9.2c1.5,0,2.8,0.3,4,1c1.2,0.7,2.2,1.6,2.9,2.8c0.7,1.2,1,2.5,1,4c0,1.2-0.3,2.3-0.9,3.3
		c-0.6,1-1.3,1.8-2.2,2.3c-0.9,0.6-1.8,0.9-2.7,0.9l-0.5,0v0c0.6,0,1.2,0.2,1.6,0.4c0.4,0.2,0.8,0.5,1,1l6.4,9h-3.8
		c-0.5,0-1-0.1-1.5-0.3c-0.4-0.2-0.8-0.6-1.2-1.1l-5.5-7.7h-3.2v9.2H58.6z M63.3,28.7h4.4c0.6,0,1.2-0.1,1.8-0.4
		c0.5-0.3,0.9-0.7,1.3-1.2c0.3-0.5,0.5-1,0.5-1.7c0-0.6-0.2-1.2-0.5-1.7c-0.3-0.5-0.7-0.9-1.3-1.2s-1.1-0.4-1.8-0.4h-4.4V28.7z"/>
	<path class="st0" d="M95.9,34.5c-0.3,0.4-0.8,0.6-1.3,0.6H83.1c0.3,1,0.8,1.9,1.7,2.5c0.8,0.6,1.8,0.9,3,0.9c0.7,0,1.4-0.2,2.2-0.6
		c0.4-0.2,0.9-0.3,1.3-0.3c0.4,0,0.8,0.1,1.2,0.3c0.4,0.2,0.7,0.5,0.9,0.9l0.9,1.3c-0.8,0.8-1.7,1.4-2.9,1.9
		c-1.2,0.5-2.4,0.7-3.6,0.7c-1.8,0-3.3-0.4-4.7-1.2c-1.4-0.8-2.5-1.9-3.3-3.3c-0.8-1.4-1.2-3-1.2-4.7c0-1.7,0.4-3.3,1.2-4.7
		c0.8-1.4,1.9-2.5,3.3-3.3c1.4-0.8,2.9-1.2,4.7-1.2c1.7,0,3.1,0.4,4.5,1.1s2.3,1.7,3.1,3.1c0.8,1.3,1.2,2.8,1.2,4.5
		C96.4,33.6,96.3,34.1,95.9,34.5z M91.9,31.7c-0.3-1-0.8-1.7-1.6-2.3c-0.7-0.6-1.6-0.8-2.6-0.8c-1.2,0-2.2,0.3-3.1,1
		c-0.8,0.7-1.4,1.6-1.6,2.8h0.1c0.3-0.4,0.9-0.7,1.5-0.7H91.9z"/>
	<path class="st0" d="M115.1,24.7l-7.5,17.7h-4.1l-7.5-17.7h2.9c0.6,0,1.2,0.1,1.6,0.4c0.4,0.3,0.8,0.7,1,1.3l3.7,9.7
		c0.1,0.3,0.2,0.6,0.2,1c0,0.4,0.1,0.8,0.1,1.4h0.1c0-1.1,0.1-1.9,0.3-2.4l3.7-9.7c0.2-0.6,0.5-1,1-1.3c0.4-0.3,1-0.4,1.6-0.4H115.1
		z"/>
	<path class="st0" d="M116.8,18.3c0.3-0.4,0.6-0.8,1-1c0.4-0.3,0.9-0.4,1.4-0.4c0.5,0,1,0.1,1.4,0.4c0.4,0.3,0.8,0.6,1,1
		c0.3,0.4,0.4,0.9,0.4,1.4c0,0.5-0.1,1-0.4,1.4c-0.3,0.4-0.6,0.8-1,1c-0.4,0.3-0.9,0.4-1.4,0.4c-0.5,0-1-0.1-1.4-0.4
		c-0.4-0.3-0.8-0.6-1-1c-0.3-0.4-0.4-0.9-0.4-1.4C116.5,19.2,116.6,18.7,116.8,18.3z M121.4,42.3h-4.4V24.7h4.4V42.3z"/>
	<path class="st0" d="M141.6,34.5c-0.3,0.4-0.8,0.6-1.3,0.6h-11.5c0.3,1,0.8,1.9,1.7,2.5c0.8,0.6,1.8,0.9,3,0.9
		c0.7,0,1.4-0.2,2.2-0.6c0.4-0.2,0.9-0.3,1.3-0.3c0.4,0,0.8,0.1,1.2,0.3c0.4,0.2,0.7,0.5,0.9,0.9L140,40c-0.8,0.8-1.7,1.4-2.9,1.9
		c-1.2,0.5-2.4,0.7-3.6,0.7c-1.8,0-3.3-0.4-4.7-1.2c-1.4-0.8-2.5-1.9-3.3-3.3c-0.8-1.4-1.2-3-1.2-4.7c0-1.7,0.4-3.3,1.2-4.7
		c0.8-1.4,1.9-2.5,3.3-3.3c1.4-0.8,2.9-1.2,4.7-1.2c1.7,0,3.1,0.4,4.5,1.1s2.3,1.7,3.1,3.1s1.2,2.8,1.2,4.5
		C142.1,33.6,142,34.1,141.6,34.5z M137.6,31.7c-0.3-1-0.8-1.7-1.6-2.3c-0.7-0.6-1.6-0.8-2.6-0.8c-1.2,0-2.2,0.3-3.1,1
		c-0.8,0.7-1.4,1.6-1.6,2.8h0.1c0.3-0.4,0.9-0.7,1.5-0.7H137.6z"/>
	<path class="st0" d="M170.5,24.7l-7,17.7h-4.2l-2.6-6.8c-0.1-0.2-0.1-0.5-0.1-0.8c0-0.4,0.1-0.9,0.3-1.4l0,0l-3.6,9h-1.6v0h-2.6
		l-7-17.7h2.9c0.7,0,1.2,0.1,1.6,0.4c0.4,0.2,0.7,0.7,0.8,1.3l3.6,9.9c0.1,0.6,0.2,1.3,0.3,2.1h0c0-0.9,0.1-1.6,0.3-2.1l3.6-9.9
		c0.2-0.6,0.4-1,0.8-1.3c0.4-0.2,0.9-0.4,1.5-0.4h2.9l-1.8,4.4l2.7,7.2c0.1,0.4,0.2,1.1,0.2,2.1h0c0-1,0.1-1.7,0.2-2.1l3.6-9.9
		c0.2-0.6,0.5-1,0.8-1.3s0.9-0.4,1.6-0.4H170.5z"/>
	<g>
		<path class="st0" d="M63.7,10.1H31.9c-1.5,0-2.7,1.4-2.7,3.1v2.3c0,0.3,0.3,0.6,0.6,0.6c0.3,0,0.6-0.3,0.6-0.6v-2.3
			c0-1.1,0.7-1.9,1.5-1.9h31.8c0.8,0,1.5,0.9,1.5,1.9v2.3c0,0.3,0.3,0.6,0.6,0.6s0.6-0.3,0.6-0.6v-2.3
			C66.4,11.5,65.2,10.1,63.7,10.1z"/>
		<path class="st0" d="M48.8,48.8H35.2c-0.3,0-0.6,0.3-0.6,0.6c0,0.3,0.3,0.6,0.6,0.6h13.6C48.8,49.6,48.8,49.2,48.8,48.8z"/>
		<path class="st0" d="M65.8,42.8c-0.3,0-0.6,0.3-0.6,0.6v3.5c0,1.1-0.7,1.9-1.5,1.9H43.9c0,0.4,0,0.8,0,1.2h19.8
			c1.5,0,2.7-1.4,2.7-3.1v-3.5C66.4,43,66.1,42.8,65.8,42.8z"/>
	</g>
</g>
</svg>
