<svg width="65" height="61" viewBox="0 0 65 61" fill="none" xmlns="http://www.w3.org/2000/svg">
<path d="M64.6691 0.661906C64.3798 0.408124 63.968 0.349245 63.619 0.511113L0.562225 29.8091C0.222749 29.9669 0.00413875 30.3056 5.80315e-05 30.6799C-0.00402269 31.0541 0.207397 31.3975 0.543571 31.5625L18.3885 40.3201C18.7158 40.4808 19.106 40.4444 19.3982 40.226L36.7485 27.2583L23.1278 41.2687C22.9335 41.4687 22.8344 41.7425 22.8558 42.0204L24.2119 59.6819C24.242 60.0733 24.5044 60.4079 24.8773 60.5305C24.977 60.5631 25.0794 60.5791 25.1806 60.5791C25.4583 60.5791 25.7284 60.46 25.9163 60.2423L35.3878 49.2668L47.0966 54.8612C47.3508 54.9827 47.645 54.9877 47.9032 54.8754C48.1615 54.7629 48.3581 54.5441 48.4425 54.2755L64.9554 1.68345C65.0708 1.31618 64.9583 0.915688 64.6691 0.661906Z" fill="#0A66EF"/>
</svg>
