<svg width="20" height="18" viewBox="0 0 20 18" id="camera" fill="none" xmlns="http://www.w3.org/2000/svg">
<path d="M7 0L5.17 2H2C1.47005 2.00158 0.962265 2.2128 0.587535 2.58753C0.212805 2.96227 0.00158273 3.47005 0 4V16C0.00158273 16.5299 0.212805 17.0377 0.587535 17.4125C0.962265 17.7872 1.47005 17.9984 2 18H18C18.5299 17.9984 19.0377 17.7872 19.4125 17.4125C19.7872 17.0377 19.9984 16.5299 20 16V4C19.9984 3.47005 19.7872 2.96227 19.4125 2.58753C19.0377 2.2128 18.5299 2.00158 18 2H14.83L13 0H7ZM10 15C9.01109 15 8.04439 14.7068 7.22215 14.1573C6.3999 13.6079 5.75904 12.827 5.3806 11.9134C5.00216 10.9998 4.90315 9.99445 5.09607 9.02455C5.289 8.05464 5.7652 7.16373 6.46447 6.46447C7.16373 5.7652 8.05464 5.289 9.02455 5.09607C9.99445 4.90315 10.9998 5.00216 11.9134 5.3806C12.827 5.75904 13.6079 6.3999 14.1573 7.22215C14.7068 8.04439 15 9.01109 15 10C15 11.3261 14.4732 12.5979 13.5355 13.5355C12.5979 14.4732 11.3261 15 10 15ZM10 14L11.25 11.25L14 10L11.25 8.75L10 6L8.75 8.75L6 10L8.75 11.25L10 14Z" fill="currentColor"/>
</svg>
