<svg width="14" height="19" viewBox="0 0 14 19" id="voice" fill="none" xmlns="http://www.w3.org/2000/svg">
<path d="M7 12C7.39361 12.0004 7.78341 11.923 8.14701 11.7723C8.5106 11.6215 8.84082 11.4004 9.11868 11.1216C9.39654 10.8428 9.61655 10.5119 9.76609 10.1478C9.91562 9.78366 9.99171 9.3936 9.99 9L10 3C10 2.20435 9.68393 1.44129 9.12132 0.87868C8.55871 0.316071 7.79565 0 7 0C6.20435 0 5.44129 0.316071 4.87868 0.87868C4.31607 1.44129 4 2.20435 4 3V9C4 9.79565 4.31607 10.5587 4.87868 11.1213C5.44129 11.6839 6.20435 12 7 12ZM12.3 9C12.2884 9.68335 12.142 10.3577 11.8691 10.9843C11.5962 11.6109 11.2022 12.1774 10.7097 12.6512C10.2172 13.1251 9.63599 13.4971 8.99937 13.7457C8.36275 13.9943 7.68329 14.1147 7 14.1C6.31671 14.1147 5.63725 13.9943 5.00063 13.7457C4.36401 13.4971 3.78278 13.1251 3.29031 12.6512C2.79784 12.1774 2.40383 11.6109 2.13092 10.9843C1.85801 10.3577 1.71156 9.68335 1.7 9H0C0.0443848 10.6486 0.671415 12.2282 1.76981 13.4584C2.86821 14.6886 4.36693 15.4899 6 15.72V19H8V15.72C9.63372 15.4914 11.1334 14.6906 12.232 13.46C13.3307 12.2295 13.9572 10.6491 14 9H12.3Z" fill="currentColor"/>
</svg>
